<svg id="svg" fill="#000000" stroke="#000000" width="200px" height="200px" version="1.1" viewBox="144 144 512 512" xmlns="http://www.w3.org/2000/svg">
    <g id="IconSvg_bgCarrier" stroke-width="0"></g>
    <g id="IconSvg_tracerCarrier" stroke-linecap="round" stroke-linejoin="round" stroke="#CCCCCC"></g>
     <g id="IconSvg_iconCarrier">
      <g xmlns="http://www.w3.org/2000/svg">
  <path d="m646 400c0 65.73-25.586 127.53-72.027 173.97-46.449 46.441-108.24 72.027-173.97 72.027s-127.53-25.586-173.97-72.027c-46.445-46.449-72.031-108.24-72.031-173.97 0-65.734 25.586-127.53 72.031-173.97 46.445-46.445 108.24-72.031 173.97-72.031 65.73 0 127.53 25.586 173.97 72.027 46.441 46.449 72.027 108.24 72.027 173.98zm-472.32 0c0 124.77 101.55 226.32 226.32 226.32 124.77 0 226.32-101.55 226.32-226.32 0-124.77-101.55-226.32-226.32-226.32-124.77 0-226.32 101.55-226.32 226.32z"></path>
  <path d="m473.11 338.2 25.289 25.094-98.398 98.496-98.5-98.496 25.289-25.094 73.211 73.113z"></path>
 </g>

      </g>
      </svg>